<svg xmlns="http://www.w3.org/2000/svg" width="24" height="24" fill="none" viewBox="0 0 24 24"><mask id="mask0_1085_430" width="24" height="24" x="0" y="0" maskUnits="userSpaceOnUse" style="mask-type:luminance"><path fill="#fff" d="M24 0H0V24H24V0Z"/></mask><g mask="url(#mask0_1085_430)"><path stroke="#504D61" stroke-linecap="round" stroke-linejoin="round" stroke-width="1.5" d="M22.0001 15.844C20.0627 16.72 17.9043 16.9849 15.8125 16.6035C13.7207 16.222 11.7948 15.2123 10.2913 13.7088C8.78782 12.2053 7.77809 10.2794 7.39663 8.18758C7.01517 6.0958 7.28009 3.93744 8.15611 2C6.61338 2.69692 5.26276 3.75773 4.22015 5.0914C3.17754 6.42507 2.47407 7.99179 2.17009 9.65711C1.86611 11.3224 1.9707 13.0367 2.47489 14.6527C2.97908 16.2687 3.86781 17.7383 5.06484 18.9353C6.26186 20.1323 7.73142 21.021 9.34744 21.5252C10.9635 22.0294 12.6777 22.134 14.343 21.83C16.0083 21.526 17.575 20.8226 18.9087 19.78C20.2424 18.7373 21.3032 17.3867 22.0001 15.844Z"/></g></svg>